HIERARCHY
ROOT Hips
{
	OFFSET 0.00000 0.00000 0.00000
	CHANNELS 6 Xposition Yposition Zposition Zrotation Yrotation Xrotation 
	JOINT LHipJoint
	{
		OFFSET 0 0 0
		CHANNELS 3 Zrotation Yrotation Xrotation
		JOINT LeftHip
		{
			OFFSET 1.41261 -1.82971 0.84908
			CHANNELS 3 Zrotation Yrotation Xrotation
			JOINT LeftKnee
			{
				OFFSET 2.52554 -6.93888 0.00000
				CHANNELS 3 Zrotation Yrotation Xrotation
				JOINT LeftAnkle
				{
					OFFSET 2.56654 -7.05152 0.00000
					CHANNELS 3 Zrotation Yrotation Xrotation
					JOINT LeftToe
					{
						OFFSET 0.21698 -0.59616 1.85369
						CHANNELS 3 Zrotation Yrotation Xrotation
						End Site
						{
							OFFSET 0.00000 -0.00000 0.97832
						}
					}
				}
			}
		}
	}
	JOINT RHipJoint
	{
		OFFSET 0 0 0
		CHANNELS 3 Zrotation Yrotation Xrotation
		JOINT RightHip
		{
			OFFSET -1.12808 -1.82971 0.84907
			CHANNELS 3 Zrotation Yrotation Xrotation
			JOINT RightKnee
			{
				OFFSET -2.53425 -6.96280 0.00000
				CHANNELS 3 Zrotation Yrotation Xrotation
				JOINT RightAnkle
				{
					OFFSET -2.58413 -7.09983 0.00000
					CHANNELS 3 Zrotation Yrotation Xrotation
					JOINT RightToe
					{
						OFFSET -0.26437 -0.72636 1.92241
						CHANNELS 3 Zrotation Yrotation Xrotation
						End Site
						{
							OFFSET -0.00000 -0.00000 1.02667
						}
					}
				}
			}
		}
	}
	JOINT lowerback
	{
		OFFSET 0 0 0
		CHANNELS 3 Zrotation Yrotation Xrotation
		JOINT Chest
		{
			OFFSET -0.02096 2.02288 -0.14752
			CHANNELS 3 Zrotation Yrotation Xrotation
			JOINT Chest2
			{
				OFFSET 0.03477 2.03136 -0.02358
				CHANNELS 3 Zrotation Yrotation Xrotation
				JOINT lowerneck
				{
					OFFSET 0 0 0
					CHANNELS 3 Zrotation Yrotation Xrotation
					JOINT Neck
					{
						OFFSET 0.00174 1.74359 0.19336
						CHANNELS 3 Zrotation Yrotation Xrotation
						JOINT Head
						{
							OFFSET -0.03054 1.76140 -0.17751
							CHANNELS 3 Zrotation Yrotation Xrotation
							End Site
							{
								OFFSET -0.00863 1.77239 -0.08120
							}
						}
					}
				}
				JOINT LeftCollar
				{
					OFFSET 0 0 0
					CHANNELS 3 Zrotation Yrotation Xrotation
					JOINT LeftShoulder
					{
						OFFSET 3.68685 1.32687 -0.67367
CHANNELS 3 Zrotation Xrotation Yrotation
						JOINT LeftElbow
						{
OFFSET 0 -4.764680 -0.000000
CHANNELS 3 Zrotation Xrotation Yrotation
							JOINT LeftWrist
							{
OFFSET 0 -3.527120 -0.000000
CHANNELS 3 Zrotation Xrotation Yrotation
								JOINT lhand
								{
									OFFSET 0 0 0
CHANNELS 3 Zrotation Xrotation Yrotation
									JOINT LFingers
									{
OFFSET 0 -0.859560 -0.000000
CHANNELS 3 Zrotation Xrotation Yrotation
										End Site
										{
OFFSET 0 -0.693000 -0.000000
										}
									}
								}
								JOINT LThumb
								{
OFFSET 0 0.000000 0.000000
CHANNELS 3 Zrotation Xrotation Yrotation
									End Site
									{
OFFSET 0 -0.703580 0.703580
									}
								}
							}
						}
					}
				}
				JOINT RightCollar
				{
					OFFSET 0 0 0
					CHANNELS 3 Zrotation Yrotation Xrotation
					JOINT RightShoulder
					{
						OFFSET -3.31304 1.28268 -0.97357
CHANNELS 3 Zrotation Xrotation Yrotation
						JOINT RightElbow
						{
OFFSET 0 -4.905770 -0.000000
CHANNELS 3 Zrotation Xrotation Yrotation
							JOINT RightWrist
							{
OFFSET 0 -3.426920 0.000000
CHANNELS 3 Zrotation Xrotation Yrotation
								JOINT rhand
								{
									OFFSET 0 0 0
CHANNELS 3 Zrotation Xrotation Yrotation
									JOINT RFingers
									{
OFFSET 0 -0.740960 -0.000000
CHANNELS 3 Zrotation Xrotation Yrotation
										End Site
										{
OFFSET 0 -0.597380 -0.000000
										}
									}
								}
								JOINT RThumb
								{
OFFSET 0 0.000000 0.000000
CHANNELS 3 Zrotation Xrotation Yrotation
									End Site
									{
OFFSET 0 -0.606500 0.606500
									}
								}
							}
						}
					}
				}
			}
		}
	}
}
MOTION
Frames: 6
Frame Time: 0.008333333333333333
1.906841 24.804576 5.316138 228.779988 -86.760167 133.738583 0.000000 0.000000 0.000000 -6.211800 -6.703109 -12.662543 4.163076 12.374044 37.068837 -0.234243 12.329925 5.102751 2.189386 -8.862793 -25.603522 0.000000 0.000000 0.000000 22.563462 -13.573464 -27.644796 -11.385787 -18.116149 64.025271 0.236071 -16.439925 8.975649 -1.371774 -7.396386 20.902623 -0.892108 -0.596874 17.779956 0.784487 -1.078308 3.194714 1.600674 -0.577576 -6.493644 13.268938 7.334064 -0.948804 -27.989231 12.746231 16.645451 -11.176942 4.941462 7.990732 0.000000 0.000000 0.000000 13.959469 5.454416 -24.756588 92.374293 -59.978656 62.056059 17.358216 -26.465974 26.090609 0.000000 0.000000 0.000000 -7.125000 0.000000 0.000000 -7.513442 3.021200 -7.171005 0.000000 0.000000 0.000000 1.780418 41.361843 9.724780 -63.668454 -57.196874 -37.412500 -21.974638 -15.092731 26.528428 0.000000 0.000000 0.000000 7.125000 0.000000 0.000000 9.053333 58.047165 -2.898597
1.854987 24.746862 5.331688 211.828152 -91.549281 150.922392 0.000000 0.000000 0.000000 -6.604378 -5.727881 -12.004093 4.186658 12.404716 37.179204 -0.371423 13.620082 4.338521 1.770867 -7.933782 -22.750141 0.000000 0.000000 0.000000 21.615118 -13.630341 -27.583109 -10.957861 -17.910425 62.639756 0.250792 -15.469573 7.903196 -1.305066 -7.236734 20.418729 -1.302934 -0.663641 17.346608 0.793331 -1.211712 2.954126 1.866747 -0.621053 -6.504325 14.413833 8.408782 -2.803318 -25.957768 14.214522 18.224298 -10.334741 5.694290 9.173782 0.000000 0.000000 0.000000 15.611743 5.542262 -22.587334 92.463416 -59.977071 62.133210 17.267231 -26.290785 25.996766 0.000000 0.000000 0.000000 -7.125000 0.000000 0.000000 -7.560905 3.130640 -7.200943 0.000000 0.000000 0.000000 1.499101 42.073752 9.030963 -61.802605 -56.762818 -35.846858 -22.593718 -15.162126 27.274329 0.000000 0.000000 0.000000 7.125000 0.000000 0.000000 8.751945 58.947334 -2.995609
1.800477 24.677315 5.356209 181.023122 -96.267995 182.062441 0.000000 0.000000 0.000000 -6.809019 -4.698306 -11.354817 4.183210 12.400240 37.162938 -0.693947 16.443865 2.102078 0.621604 -5.034271 -14.008387 0.000000 0.000000 0.000000 20.742976 -13.436671 -27.550787 -10.517338 -17.688747 61.201198 0.237348 -14.151150 6.836570 -1.312955 -7.252719 20.468535 -1.621636 -0.686797 16.844598 0.847815 -1.265395 2.673222 2.109724 -0.626557 -6.522861 16.296151 10.072660 -4.903372 -24.498412 16.499392 19.677460 -9.777151 6.853552 10.689530 0.000000 0.000000 0.000000 17.268422 5.661688 -20.399379 92.557763 -59.975185 62.214863 17.373065 -26.222790 25.712555 0.000000 0.000000 0.000000 -7.125000 0.000000 0.000000 -7.473139 3.402296 -7.077803 0.000000 0.000000 0.000000 1.011524 42.878500 8.653636 -60.177718 -56.352621 -34.489982 -22.954667 -15.568638 27.853933 0.000000 0.000000 0.000000 7.125000 0.000000 0.000000 8.650192 59.622708 -3.101830
1.745167 24.581561 5.411332 184.939371 -100.048293 178.473217 0.000000 0.000000 0.000000 -6.912887 -3.842529 -10.377644 4.124494 12.323996 36.888373 -0.745726 16.746611 1.602870 0.420806 -4.098719 -11.363881 0.000000 0.000000 0.000000 19.815166 -12.950159 -27.436762 -9.860253 -17.320906 59.007157 0.193187 -13.444330 6.820838 -1.055237 -6.503287 18.262169 -1.671990 -0.580576 16.419837 0.848000 -1.109253 2.397171 2.098513 -0.537740 -6.592726 16.903191 11.076404 -4.361860 -22.507957 17.390969 17.951165 -8.804252 7.610293 10.004202 0.000000 0.000000 0.000000 19.210690 6.027424 -18.138571 93.081808 -59.963479 62.668549 17.597770 -27.991946 26.093217 0.000000 0.000000 0.000000 -7.125000 0.000000 0.000000 -7.370015 2.980075 -7.035624 0.000000 0.000000 0.000000 0.225053 43.182980 8.336831 -57.694805 -55.641589 -32.435174 -22.272374 -16.432653 27.612566 0.000000 0.000000 0.000000 7.125000 0.000000 0.000000 9.278229 59.217271 -3.236542
1.686039 24.473632 5.472543 187.823045 -103.758671 175.879526 0.000000 0.000000 0.000000 -7.032289 -2.953213 -9.315017 4.048234 12.223690 36.528928 -0.749265 16.851887 1.727053 0.337249 -3.725943 -10.307634 0.000000 0.000000 0.000000 18.772814 -12.456957 -27.074873 -9.188466 -16.916597 56.723527 0.180412 -12.908821 6.483504 -0.942269 -6.181098 17.311288 -1.813916 -0.546083 15.983647 0.888875 -1.062972 2.176337 2.205262 -0.502620 -6.588593 16.738212 11.533595 -4.317024 -20.875571 17.730480 17.449572 -8.012311 7.932440 9.686448 0.000000 0.000000 0.000000 20.881348 6.528089 -15.486958 93.504147 -59.953352 63.034195 17.569444 -29.159102 26.329876 0.000000 0.000000 0.000000 -7.125000 0.000000 0.000000 -7.407103 2.744440 -7.104484 0.000000 0.000000 0.000000 -0.953227 43.365395 8.417808 -55.215970 -54.871692 -30.398055 -21.346036 -16.792814 27.175366 0.000000 0.000000 0.000000 7.125000 0.000000 0.000000 10.060146 58.563626 -3.346789
1.622492 24.351617 5.540797 189.512055 -107.388154 174.437643 0.000000 0.000000 0.000000 -7.169664 -2.025093 -8.153520 3.951675 12.095543 36.071279 -0.696990 16.728695 2.572487 0.389338 -4.004286 -11.088963 0.000000 0.000000 0.000000 17.597940 -11.956014 -26.426211 -8.499669 -16.470096 54.336245 0.203947 -12.571514 5.774082 -0.996773 -6.353219 17.812974 -2.061786 -0.594580 15.534236 0.976825 -1.143800 2.019390 2.448487 -0.529624 -6.498847 15.680026 11.358439 -4.846829 -19.657465 17.431265 18.364932 -7.429736 7.751771 9.793970 0.000000 0.000000 0.000000 22.237759 7.184864 -12.383193 93.808813 -59.945053 63.297983 17.248365 -29.629758 26.399926 0.000000 0.000000 0.000000 -7.125000 0.000000 0.000000 -7.606415 2.724682 -7.301814 0.000000 0.000000 0.000000 -2.584822 43.406583 8.959009 -52.741852 -54.033691 -28.381401 -20.137344 -16.570028 26.511592 0.000000 0.000000 0.000000 7.125000 0.000000 0.000000 11.020101 57.622810 -3.428731
